<?xml version="1.0" encoding="iso-8859-1"?>
<!-- Generator: Adobe Illustrator 19.0.0, SVG Export Plug-In . SVG Version: 6.00 Build 0)  -->
<svg version="1.1" id="Capa_1" xmlns="http://www.w3.org/2000/svg" xmlns:xlink="http://www.w3.org/1999/xlink" x="0px" y="0px"
	 viewBox="0 0 415.999 415.999" style="enable-background:new 0 0 415.999 415.999;" xml:space="preserve">
<g>
	<g>
		<rect x="240" y="240" width="64" height="16"/>
	</g>
</g>
<g>
	<g>
		<rect x="240" y="288" width="64" height="16"/>
	</g>
</g>
<g>
	<g>
		<circle cx="208.24" cy="48" r="12"/>
	</g>
</g>
<g>
	<g>
		<path d="M367.998,96c0-17.673-14.326-32-31.999-32h-44.424c-5.926-6.583-13.538-11.62-22.284-14.136
			c-7.367-2.119-13.037-7.789-15.156-15.156C248.371,14.664,229.897,0,207.999,0c-21.898,0-40.37,14.663-46.134,34.707
			c-2.122,7.376-7.806,13.039-15.181,15.164c-8.738,2.518-16.342,7.55-22.262,14.129H80c-17.674,0-32,14.327-32,32v287.999
			c0,17.673,14.326,32,32,32c73.466,0,163.758,0,256,0c17.674,0,32-14.327,32-32C368,293.12,367.999,206.097,367.998,96z
			 M128,95.742c0.11-14.066,9.614-26.606,23.112-30.496c12.71-3.663,22.478-13.426,26.128-26.117
			C181.157,25.512,193.805,16,207.999,16c14.194,0,26.842,9.512,30.758,23.131c3.652,12.698,13.413,22.459,26.111,26.11
			c13.618,3.916,23.13,16.565,23.13,30.758v16H128V95.742z M336,399.999c-85.455,0-170.77,0-256,0c-8.823,0-16-7.178-16-16V96
			c0-8.822,7.177-16,16-16h34.742c-1.73,4.892-2.696,10.143-2.739,15.617V128h191.997V96c0-5.615-0.992-10.991-2.764-16h34.764
			c8.822,0,15.999,7.178,15.999,16c0,45.743-0.001,260.254,0.002,287.999C352,392.822,344.823,399.999,336,399.999z"/>
	</g>
</g>
<g>
	<g>
		<polygon points="239.818,175.088 171.952,242.953 154.811,225.811 143.481,237.142 171.935,265.597 191.999,245.534 
			191.999,287.999 127.999,287.999 127.999,208 175.999,208 191.999,192 111.999,192 111.998,304 207.999,304 207.999,229.534 
			251.132,186.402 		"/>
	</g>
</g>
<g>
</g>
<g>
</g>
<g>
</g>
<g>
</g>
<g>
</g>
<g>
</g>
<g>
</g>
<g>
</g>
<g>
</g>
<g>
</g>
<g>
</g>
<g>
</g>
<g>
</g>
<g>
</g>
<g>
</g>
</svg>
